<mxfile host="app.diagrams.net" modified="2022-09-24T23:10:26.568Z" agent="5.0 (Macintosh; Intel Mac OS X 10_15_7) AppleWebKit/605.1.15 (KHTML, like Gecko) Version/16.0 Safari/605.1.15" etag="Nt0G3Hy2mHA3ZVZKQi0p" version="20.3.6" type="github">
  <diagram id="R2lEEEUBdFMjLlhIrx00" name="Page-1">
    <mxGraphModel dx="946" dy="622" grid="1" gridSize="10" guides="1" tooltips="1" connect="1" arrows="1" fold="1" page="1" pageScale="1" pageWidth="850" pageHeight="1100" math="0" shadow="0" extFonts="Permanent Marker^https://fonts.googleapis.com/css?family=Permanent+Marker">
      <root>
        <mxCell id="0" />
        <mxCell id="1" parent="0" />
        <mxCell id="c6DFiSQj6Syex3rqCaeC-1" value="Person" style="rounded=0;whiteSpace=wrap;html=1;" vertex="1" parent="1">
          <mxGeometry x="80" y="160" width="120" height="60" as="geometry" />
        </mxCell>
        <mxCell id="c6DFiSQj6Syex3rqCaeC-4" value="d" style="ellipse;whiteSpace=wrap;html=1;aspect=fixed;" vertex="1" parent="1">
          <mxGeometry x="280" y="175" width="30" height="30" as="geometry" />
        </mxCell>
        <mxCell id="c6DFiSQj6Syex3rqCaeC-5" value="" style="endArrow=none;html=1;rounded=0;exitX=1.1;exitY=0.867;exitDx=0;exitDy=0;exitPerimeter=0;" edge="1" parent="1" source="c6DFiSQj6Syex3rqCaeC-4" target="c6DFiSQj6Syex3rqCaeC-9">
          <mxGeometry width="50" height="50" relative="1" as="geometry">
            <mxPoint x="320" y="225" as="sourcePoint" />
            <mxPoint x="360" y="250" as="targetPoint" />
          </mxGeometry>
        </mxCell>
        <mxCell id="c6DFiSQj6Syex3rqCaeC-6" value="" style="endArrow=none;html=1;rounded=0;" edge="1" parent="1">
          <mxGeometry width="50" height="50" relative="1" as="geometry">
            <mxPoint x="310" y="180" as="sourcePoint" />
            <mxPoint x="360" y="130" as="targetPoint" />
          </mxGeometry>
        </mxCell>
        <mxCell id="c6DFiSQj6Syex3rqCaeC-9" value="Reviewer" style="rounded=0;whiteSpace=wrap;html=1;" vertex="1" parent="1">
          <mxGeometry x="320" y="300" width="120" height="60" as="geometry" />
        </mxCell>
        <mxCell id="c6DFiSQj6Syex3rqCaeC-10" value="Author" style="rounded=0;whiteSpace=wrap;html=1;" vertex="1" parent="1">
          <mxGeometry x="360" y="70" width="120" height="60" as="geometry" />
        </mxCell>
        <mxCell id="c6DFiSQj6Syex3rqCaeC-14" value="Name" style="ellipse;shape=doubleEllipse;margin=3;whiteSpace=wrap;html=1;align=center;" vertex="1" parent="1">
          <mxGeometry x="80" y="60" width="100" height="40" as="geometry" />
        </mxCell>
        <mxCell id="c6DFiSQj6Syex3rqCaeC-15" value="First&lt;span style=&quot;white-space: pre;&quot;&gt;&amp;nbsp;Name&lt;/span&gt;" style="ellipse;whiteSpace=wrap;html=1;align=center;" vertex="1" parent="1">
          <mxGeometry x="10" width="100" height="40" as="geometry" />
        </mxCell>
        <mxCell id="c6DFiSQj6Syex3rqCaeC-16" value="Last Name" style="ellipse;whiteSpace=wrap;html=1;align=center;" vertex="1" parent="1">
          <mxGeometry x="170" width="100" height="40" as="geometry" />
        </mxCell>
        <mxCell id="c6DFiSQj6Syex3rqCaeC-19" value="" style="endArrow=none;html=1;rounded=0;entryX=0.5;entryY=1;entryDx=0;entryDy=0;exitX=0.45;exitY=-0.05;exitDx=0;exitDy=0;exitPerimeter=0;" edge="1" parent="1" source="c6DFiSQj6Syex3rqCaeC-1" target="c6DFiSQj6Syex3rqCaeC-14">
          <mxGeometry relative="1" as="geometry">
            <mxPoint x="100" y="130" as="sourcePoint" />
            <mxPoint x="260" y="130" as="targetPoint" />
          </mxGeometry>
        </mxCell>
        <mxCell id="c6DFiSQj6Syex3rqCaeC-20" value="" style="endArrow=none;html=1;rounded=0;entryX=0.5;entryY=1;entryDx=0;entryDy=0;exitX=0.5;exitY=0;exitDx=0;exitDy=0;" edge="1" parent="1" source="c6DFiSQj6Syex3rqCaeC-14" target="c6DFiSQj6Syex3rqCaeC-16">
          <mxGeometry relative="1" as="geometry">
            <mxPoint x="340" y="280" as="sourcePoint" />
            <mxPoint x="500" y="280" as="targetPoint" />
          </mxGeometry>
        </mxCell>
        <mxCell id="c6DFiSQj6Syex3rqCaeC-21" value="" style="endArrow=none;html=1;rounded=0;entryX=0.5;entryY=1;entryDx=0;entryDy=0;exitX=0.42;exitY=0.05;exitDx=0;exitDy=0;exitPerimeter=0;" edge="1" parent="1" source="c6DFiSQj6Syex3rqCaeC-14" target="c6DFiSQj6Syex3rqCaeC-15">
          <mxGeometry relative="1" as="geometry">
            <mxPoint x="340" y="280" as="sourcePoint" />
            <mxPoint x="500" y="280" as="targetPoint" />
          </mxGeometry>
        </mxCell>
        <mxCell id="c6DFiSQj6Syex3rqCaeC-23" value="Email" style="ellipse;whiteSpace=wrap;html=1;align=center;fontStyle=4;" vertex="1" parent="1">
          <mxGeometry x="70" y="280" width="100" height="40" as="geometry" />
        </mxCell>
        <mxCell id="c6DFiSQj6Syex3rqCaeC-24" value="" style="endArrow=none;html=1;rounded=0;exitX=0.5;exitY=1;exitDx=0;exitDy=0;entryX=0.5;entryY=0;entryDx=0;entryDy=0;" edge="1" parent="1" source="c6DFiSQj6Syex3rqCaeC-1" target="c6DFiSQj6Syex3rqCaeC-23">
          <mxGeometry relative="1" as="geometry">
            <mxPoint x="340" y="280" as="sourcePoint" />
            <mxPoint x="500" y="280" as="targetPoint" />
          </mxGeometry>
        </mxCell>
        <mxCell id="c6DFiSQj6Syex3rqCaeC-27" value="" style="shape=link;html=1;rounded=0;" edge="1" parent="1">
          <mxGeometry relative="1" as="geometry">
            <mxPoint x="200" y="190" as="sourcePoint" />
            <mxPoint x="280" y="190" as="targetPoint" />
          </mxGeometry>
        </mxCell>
        <mxCell id="c6DFiSQj6Syex3rqCaeC-30" value="Phone #" style="ellipse;whiteSpace=wrap;html=1;align=center;" vertex="1" parent="1">
          <mxGeometry x="350" y="390" width="100" height="40" as="geometry" />
        </mxCell>
        <mxCell id="c6DFiSQj6Syex3rqCaeC-31" value="Affiliation" style="ellipse;whiteSpace=wrap;html=1;align=center;" vertex="1" parent="1">
          <mxGeometry x="350" y="460" width="100" height="40" as="geometry" />
        </mxCell>
        <mxCell id="c6DFiSQj6Syex3rqCaeC-32" value="Expertise" style="ellipse;whiteSpace=wrap;html=1;" vertex="1" parent="1">
          <mxGeometry x="340" y="520" width="100" height="40" as="geometry" />
        </mxCell>
        <mxCell id="c6DFiSQj6Syex3rqCaeC-34" value="" style="endArrow=none;html=1;rounded=0;entryX=0.675;entryY=1.05;entryDx=0;entryDy=0;entryPerimeter=0;exitX=0.5;exitY=0;exitDx=0;exitDy=0;" edge="1" parent="1" source="c6DFiSQj6Syex3rqCaeC-30" target="c6DFiSQj6Syex3rqCaeC-9">
          <mxGeometry relative="1" as="geometry">
            <mxPoint x="340" y="410" as="sourcePoint" />
            <mxPoint x="500" y="410" as="targetPoint" />
          </mxGeometry>
        </mxCell>
        <mxCell id="c6DFiSQj6Syex3rqCaeC-36" value="" style="endArrow=none;html=1;rounded=0;exitX=0.25;exitY=1;exitDx=0;exitDy=0;entryX=0.01;entryY=0.3;entryDx=0;entryDy=0;entryPerimeter=0;" edge="1" parent="1" source="c6DFiSQj6Syex3rqCaeC-9" target="c6DFiSQj6Syex3rqCaeC-31">
          <mxGeometry relative="1" as="geometry">
            <mxPoint x="340" y="410" as="sourcePoint" />
            <mxPoint x="300" y="430" as="targetPoint" />
            <Array as="points">
              <mxPoint x="320" y="410" />
            </Array>
          </mxGeometry>
        </mxCell>
        <mxCell id="c6DFiSQj6Syex3rqCaeC-37" value="" style="endArrow=none;html=1;rounded=0;exitX=0;exitY=1;exitDx=0;exitDy=0;entryX=0.02;entryY=0.35;entryDx=0;entryDy=0;entryPerimeter=0;" edge="1" parent="1" source="c6DFiSQj6Syex3rqCaeC-9" target="c6DFiSQj6Syex3rqCaeC-32">
          <mxGeometry relative="1" as="geometry">
            <mxPoint x="340" y="410" as="sourcePoint" />
            <mxPoint x="500" y="410" as="targetPoint" />
            <Array as="points">
              <mxPoint x="290" y="450" />
            </Array>
          </mxGeometry>
        </mxCell>
      </root>
    </mxGraphModel>
  </diagram>
</mxfile>
